####
#
# OBJ File Generated by Meshlab
#
####
# Object tunnel_roof_test.obj
#
# Vertices: 160
# Faces: 142
#
####
mtllib ./tunnel_roof_test.obj.mtl

vn 0.000000 0.044960 0.998989
v 54814.867188 4.122775 0.114815
vn 0.000000 0.044960 0.998989
v 50.831234 4.122775 0.114815
vn 0.000000 0.090544 0.995893
v 54814.867188 238.710617 -10.442874
vn 0.000000 0.090544 0.995893
v 50.831234 238.710617 -10.442874
vn 0.000000 0.182420 0.983221
v 54814.867188 479.326019 -43.458176
vn 0.000000 0.182419 0.983221
v 50.831234 479.326019 -43.458176
vn 0.000000 0.275262 0.961369
v 54814.867188 722.932373 -100.633904
vn 0.000000 0.275262 0.961369
v 50.831234 722.932373 -100.633904
vn 0.000000 0.367749 0.929925
v 54814.867188 966.026184 -183.137726
vn 0.000000 0.367749 0.929925
v 50.831234 966.026184 -183.137726
vn 0.000000 0.458436 0.888727
v 54814.867188 1204.753174 -291.463928
vn 0.000000 0.458436 0.888727
v 50.831234 1204.753174 -291.463928
vn 0.000000 0.545825 0.837899
v 54814.867188 1435.071045 -425.326904
vn 0.000000 0.545825 0.837899
v 50.831234 1435.071045 -425.326904
vn 0.000000 0.628426 0.777869
v 54814.867188 1652.947510 -583.603394
vn 0.000000 0.628426 0.777869
v 50.831234 1652.947510 -583.603394
vn 0.000000 0.704841 0.709365
v 54814.867188 1854.578247 -764.336487
vn 0.000000 0.704841 0.709366
v 50.831234 1854.578247 -764.336487
vn 0.000000 0.773832 0.633391
v 54814.867188 2036.598145 -964.807068
vn 0.000000 0.773832 0.633391
v 50.831234 2036.598145 -964.807068
vn 0.000000 0.834389 0.551176
v 54814.867188 2196.266602 -1181.667725
vn 0.000000 0.834389 0.551176
v 50.831234 2196.266602 -1181.667725
vn 0.000000 0.885774 0.464116
v 54814.867188 2331.602295 -1411.126343
vn 0.000000 0.885774 0.464117
v 50.831234 2331.602295 -1411.126343
vn 0.000000 0.927551 0.373697
v 54814.867188 2441.456299 -1649.157959
vn 0.000000 0.927551 0.373697
v 50.831234 2441.456299 -1649.157959
vn 0.000000 0.959586 0.281417
v 54814.867188 2525.517090 -1891.722290
vn 0.000000 0.959586 0.281417
v 50.831234 2525.517090 -1891.722290
vn 0.000000 0.982031 0.188719
v 54814.867188 2584.254150 -2134.961670
vn 0.000000 0.982031 0.188719
v 50.831234 2584.254150 -2134.961670
vn 0.000000 0.995291 0.096930
v 54814.867188 2618.812500 -2375.364990
vn 0.000000 0.995291 0.096930
v 50.831234 2618.812500 -2375.364990
vn 0.000000 1.000000 0.000000
v 54814.867188 2630.875488 -2609.885254
vn 0.000000 1.000000 -0.000000
v 50.831234 2630.875488 -2609.885254
vn 0.000000 0.995291 -0.096930
v 54814.867188 2618.812500 -2844.405273
vn 0.000000 0.995291 -0.096930
v 50.831234 2618.812500 -2844.405273
vn 0.000000 0.982031 -0.188719
v 54814.867188 2584.254150 -3084.808838
vn 0.000000 0.982031 -0.188719
v 50.831234 2584.254150 -3084.808838
vn 0.000000 0.959586 -0.281417
v 54814.867188 2525.517090 -3328.048096
vn 0.000000 0.959586 -0.281417
v 50.831234 2525.517090 -3328.048096
vn 0.000000 0.927551 -0.373697
v 54814.867188 2441.456299 -3570.612305
vn 0.000000 0.927551 -0.373697
v 50.831234 2441.456299 -3570.612305
vn 0.000000 0.885774 -0.464117
v 54814.867188 2331.602295 -3808.644043
vn 0.000000 0.885774 -0.464116
v 50.831234 2331.602295 -3808.644043
vn 0.000000 0.834389 -0.551176
v 54814.867188 2196.266602 -4038.102539
vn 0.000000 0.834389 -0.551176
v 50.831234 2196.266602 -4038.102539
vn 0.000000 0.773832 -0.633390
v 54814.867188 2036.598145 -4254.963379
vn 0.000000 0.773832 -0.633390
v 50.831234 2036.598145 -4254.963379
vn 0.000000 0.704841 -0.709366
v 54814.867188 1854.578247 -4455.434082
vn 0.000000 0.704841 -0.709365
v 50.831234 1854.578247 -4455.434082
vn 0.000000 0.628426 -0.777869
v 54814.867188 1652.947510 -4636.166992
vn 0.000000 0.628426 -0.777869
v 50.831234 1652.947510 -4636.166992
vn 0.000000 0.545825 -0.837899
v 54814.867188 1435.071045 -4794.443359
vn 0.000000 0.545825 -0.837899
v 50.831234 1435.071045 -4794.443359
vn 0.000000 0.458437 -0.888727
v 54814.867188 1204.753174 -4928.306641
vn 0.000000 0.458437 -0.888727
v 50.831234 1204.753174 -4928.306641
vn 0.000000 0.367748 -0.929926
v 54814.867188 966.026184 -5036.632812
vn 0.000000 0.367748 -0.929925
v 50.831234 966.026184 -5036.632812
vn 0.000000 0.275262 -0.961369
v 54814.867188 722.932373 -5119.136230
vn 0.000000 0.275262 -0.961369
v 50.831234 722.932373 -5119.136230
vn 0.000000 0.182420 -0.983221
v 54814.867188 479.326019 -5176.312012
vn 0.000000 0.182420 -0.983221
v 50.831234 479.326019 -5176.312012
vn 0.000000 0.090544 -0.995892
v 54814.867188 238.710617 -5209.327637
vn 0.000000 0.090544 -0.995892
v 50.831234 238.710617 -5209.327637
vn 0.000000 0.044959 -0.998989
v 54814.867188 4.122775 -5219.885254
vn 0.000000 0.044959 -0.998989
v 50.831234 4.122775 -5219.885254
vn 0.000000 -0.044959 0.998989
v 54814.867188 4.122775 -5150.629883
vn 0.000000 -0.044959 0.998989
v 50.831234 4.122775 -5150.629883
vn 0.000000 -0.090541 0.995893
v 54814.867188 232.487747 -5140.352539
vn 0.000000 -0.090541 0.995893
v 50.831234 232.487747 -5140.352539
vn 0.000000 -0.182413 0.983222
v 54814.867188 466.724152 -5108.213379
vn 0.000000 -0.182413 0.983222
v 50.831234 466.724152 -5108.213379
vn 0.000000 -0.275249 0.961373
v 54814.867188 703.876282 -5052.554688
vn 0.000000 -0.275249 0.961373
v 50.831234 703.876282 -5052.554688
vn 0.000000 -0.367727 0.929934
v 54814.867188 940.533752 -4972.240234
vn 0.000000 -0.367727 0.929934
v 50.831234 940.533752 -4972.240234
vn 0.000000 -0.458404 0.888744
v 54814.867188 1172.944702 -4866.788086
vn 0.000000 -0.458404 0.888744
v 50.831234 1172.944702 -4866.788086
vn 0.000000 -0.545781 0.837928
v 54814.867188 1397.173950 -4736.477051
vn 0.000000 -0.545781 0.837928
v 50.831234 1397.173950 -4736.477051
vn 0.000000 -0.628372 0.777913
v 54814.867188 1609.296265 -4582.400391
vn 0.000000 -0.628372 0.777913
v 50.831234 1609.296265 -4582.400391
vn 0.000000 -0.704779 0.709427
v 54814.867188 1805.607544 -4406.463379
vn 0.000000 -0.704779 0.709427
v 50.831234 1805.607544 -4406.463379
vn 0.000000 -0.773766 0.633471
v 54814.867188 1982.831665 -4211.312012
vn 0.000000 -0.773766 0.633472
v 50.831234 1982.831665 -4211.312012
vn 0.000000 -0.834322 0.551278
v 54814.867188 2138.300293 -4000.205566
vn 0.000000 -0.834322 0.551278
v 50.831234 2138.300293 -4000.205566
vn 0.000000 -0.885711 0.464238
v 54814.867188 2270.084229 -3776.835693
vn 0.000000 -0.885711 0.464238
v 50.831234 2270.084229 -3776.835693
vn 0.000000 -0.927495 0.373836
v 54814.867188 2377.063721 -3545.119873
vn 0.000000 -0.927495 0.373836
v 50.831234 2377.063721 -3545.119873
vn 0.000000 -0.959540 0.281571
v 54814.867188 2458.935303 -3308.991943
vn 0.000000 -0.959540 0.281571
v 50.831234 2458.935303 -3308.991943
vn 0.000000 -0.981999 0.188885
v 54814.867188 2516.155273 -3072.206787
vn 0.000000 -0.981999 0.188885
v 50.831234 2516.155273 -3072.206787
vn 0.000000 -0.995274 0.097102
v 54814.867188 2549.837646 -2838.182373
vn 0.000000 -0.995274 0.097102
v 50.831234 2549.837646 -2838.182373
vn 0.000000 -1.000000 -0.000000
v 54814.867188 2561.620361 -2609.885254
vn 0.000000 -1.000000 0.000000
v 50.831234 2561.620361 -2609.885254
vn 0.000000 -0.995274 -0.097102
v 54814.867188 2549.837646 -2381.587891
vn 0.000000 -0.995274 -0.097102
v 50.831234 2549.837646 -2381.587891
vn 0.000000 -0.981999 -0.188885
v 54814.867188 2516.155273 -2147.563477
vn 0.000000 -0.981999 -0.188885
v 50.831234 2516.155273 -2147.563477
vn 0.000000 -0.959540 -0.281571
v 54814.867188 2458.935303 -1910.778320
vn 0.000000 -0.959540 -0.281571
v 50.831234 2458.935303 -1910.778320
vn 0.000000 -0.927495 -0.373836
v 54814.867188 2377.063721 -1674.650391
vn 0.000000 -0.927495 -0.373836
v 50.831234 2377.063721 -1674.650391
vn 0.000000 -0.885710 -0.464238
v 54814.867188 2270.084229 -1442.934814
vn 0.000000 -0.885711 -0.464238
v 50.831234 2270.084229 -1442.934814
vn 0.000000 -0.834322 -0.551278
v 54814.867188 2138.300293 -1219.564819
vn 0.000000 -0.834322 -0.551278
v 50.831234 2138.300293 -1219.564819
vn 0.000000 -0.773766 -0.633472
v 54814.867188 1982.831665 -1008.458435
vn 0.000000 -0.773766 -0.633471
v 50.831234 1982.831665 -1008.458435
vn 0.000000 -0.704779 -0.709427
v 54814.867188 1805.607544 -813.307190
vn 0.000000 -0.704780 -0.709426
v 50.831234 1805.607544 -813.307190
vn 0.000000 -0.628372 -0.777913
v 54814.867188 1609.296265 -637.369751
vn 0.000000 -0.628373 -0.777913
v 50.831234 1609.296265 -637.369751
vn 0.000000 -0.545781 -0.837928
v 54814.867188 1397.173950 -483.293091
vn 0.000000 -0.545781 -0.837928
v 50.831234 1397.173950 -483.293091
vn 0.000000 -0.458404 -0.888744
v 54814.867188 1172.944702 -352.982086
vn 0.000000 -0.458403 -0.888744
v 50.831234 1172.944702 -352.982086
vn 0.000000 -0.367726 -0.929934
v 54814.867188 940.533752 -247.530273
vn 0.000000 -0.367726 -0.929934
v 50.831234 940.533752 -247.530273
vn 0.000000 -0.275249 -0.961373
v 54814.867188 703.876282 -167.215652
vn 0.000000 -0.275249 -0.961373
v 50.831234 703.876282 -167.215652
vn 0.000000 -0.182413 -0.983222
v 54814.867188 466.724152 -111.557053
vn 0.000000 -0.182413 -0.983222
v 50.831234 466.724152 -111.557053
vn 0.000000 -0.090542 -0.995893
v 54814.867188 232.487747 -79.417793
vn 0.000000 -0.090542 -0.995893
v 50.831234 232.487747 -79.417793
vn 0.000000 -0.044959 -0.998989
v 54814.867188 4.122775 -69.140251
vn 0.000000 -0.044959 -0.998989
v 50.831234 4.122775 -69.140251
vn 0.000000 0.000000 1.000000
v 19445.662109 1870.000000 -854.187805
vn 0.000000 0.000000 1.000000
v 19445.662109 1890.000000 -854.187805
vn 0.000000 0.000000 1.000000
v 21434.011719 1870.000000 -854.187805
vn 0.000000 0.000000 1.000000
v 21434.011719 1890.000000 -854.187805
vn 0.000000 1.000000 0.000000
v 19445.662109 1870.000000 -854.187805
vn 0.000000 1.000000 0.000000
v 19489.361328 1870.000000 -854.187805
vn 0.000000 1.000000 0.000000
v 19489.361328 1870.000000 -904.187805
vn 0.000000 1.000000 0.000000
v 19445.662109 1870.000000 -904.187805
vn 0.000000 0.000000 1.000000
v 17501.011719 1870.000000 -854.187805
vn 0.000000 0.000000 1.000000
v 17501.011719 1890.000000 -854.187805
vn 0.000000 0.000000 1.000000
v 19489.361328 1870.000000 -854.187805
vn 0.000000 0.000000 1.000000
v 19489.361328 1890.000000 -854.187805
vn 0.000000 1.000000 0.000000
v 17501.011719 1870.000000 -854.187805
vn 0.000000 1.000000 0.000000
v 17544.710938 1870.000000 -854.187805
vn 0.000000 1.000000 0.000000
v 17544.710938 1870.000000 -904.187805
vn 0.000000 1.000000 0.000000
v 17501.011719 1870.000000 -904.187805
vn 0.000000 1.000000 0.000000
v 19445.662109 1870.000000 -854.187805
vn 0.000000 1.000000 0.000000
v 19489.361328 1870.000000 -854.187805
vn 0.000000 1.000000 0.000000
v 19489.361328 1870.000000 -904.187805
vn 0.000000 1.000000 0.000000
v 19445.662109 1870.000000 -904.187805
vn 0.000000 0.000000 1.000000
v 15556.361328 1870.000000 -854.187805
vn 0.000000 0.000000 1.000000
v 15556.361328 1890.000000 -854.187805
vn 0.000000 0.000000 1.000000
v 17544.710938 1870.000000 -854.187805
vn 0.000000 0.000000 1.000000
v 17544.710938 1890.000000 -854.187805
vn 0.000000 1.000000 0.000000
v 17501.011719 1870.000000 -854.187805
vn 0.000000 1.000000 0.000000
v 17544.710938 1870.000000 -854.187805
vn 0.000000 1.000000 0.000000
v 17544.710938 1870.000000 -904.187805
vn 0.000000 1.000000 0.000000
v 17501.011719 1870.000000 -904.187805
# 160 vertices, 0 vertices normals


usemtl material_0
vt 0.000000 0.000000
vt 0.013610 0.000000
vt 0.013610 1.000000
f 1/1/1 3/2/3 4/3/4
vt 0.000000 1.000000
f 1/1/1 4/3/4 2/4/2
vt 0.027220 0.000000
vt 0.027220 1.000000
f 3/2/3 5/5/5 6/6/6
f 3/2/3 6/6/6 4/3/4
vt 0.040830 0.000000
vt 0.040830 1.000000
f 5/5/5 7/7/7 8/8/8
f 5/5/5 8/8/8 6/6/6
vt 0.054440 0.000000
vt 0.054440 1.000000
f 7/7/7 9/9/9 10/10/10
f 7/7/7 10/10/10 8/8/8
vt 0.068050 0.000000
vt 0.068050 1.000000
f 9/9/9 11/11/11 12/12/12
f 9/9/9 12/12/12 10/10/10
vt 0.081660 0.000000
vt 0.081660 1.000000
f 11/11/11 13/13/13 14/14/14
f 11/11/11 14/14/14 12/12/12
vt 0.095270 0.000000
vt 0.095270 1.000000
f 13/13/13 15/15/15 16/16/16
f 13/13/13 16/16/16 14/14/14
vt 0.108880 0.000000
vt 0.108880 1.000000
f 15/15/15 17/17/17 18/18/18
f 15/15/15 18/18/18 16/16/16
vt 0.122490 0.000000
vt 0.122490 1.000000
f 17/17/17 19/19/19 20/20/20
f 17/17/17 20/20/20 18/18/18
vt 0.136100 0.000000
vt 0.136100 1.000000
f 19/19/19 21/21/21 22/22/22
f 19/19/19 22/22/22 20/20/20
vt 0.149710 0.000000
vt 0.149710 1.000000
f 21/21/21 23/23/23 24/24/24
f 21/21/21 24/24/24 22/22/22
vt 0.163319 0.000000
vt 0.163319 1.000000
f 23/23/23 25/25/25 26/26/26
f 23/23/23 26/26/26 24/24/24
vt 0.176929 0.000000
vt 0.176929 1.000000
f 25/25/25 27/27/27 28/28/28
f 25/25/25 28/28/28 26/26/26
vt 0.190539 0.000000
vt 0.190539 1.000000
f 27/27/27 29/29/29 30/30/30
f 27/27/27 30/30/30 28/28/28
vt 0.204149 0.000000
vt 0.204149 1.000000
f 29/29/29 31/31/31 32/32/32
f 29/29/29 32/32/32 30/30/30
vt 0.217759 0.000000
vt 0.217759 1.000000
f 31/31/31 33/33/33 34/34/34
f 31/31/31 34/34/34 32/32/32
vt 0.231369 0.000000
vt 0.231369 1.000000
f 33/33/33 35/35/35 36/36/36
f 33/33/33 36/36/36 34/34/34
vt 0.244979 0.000000
vt 0.244979 1.000000
f 35/35/35 37/37/37 38/38/38
f 35/35/35 38/38/38 36/36/36
vt 0.258589 0.000000
vt 0.258589 1.000000
f 37/37/37 39/39/39 40/40/40
f 37/37/37 40/40/40 38/38/38
vt 0.272199 0.000000
vt 0.272199 1.000000
f 39/39/39 41/41/41 42/42/42
f 39/39/39 42/42/42 40/40/40
vt 0.285809 0.000000
vt 0.285809 1.000000
f 41/41/41 43/43/43 44/44/44
f 41/41/41 44/44/44 42/42/42
vt 0.299419 0.000000
vt 0.299419 1.000000
f 43/43/43 45/45/45 46/46/46
f 43/43/43 46/46/46 44/44/44
vt 0.313029 0.000000
vt 0.313029 1.000000
f 45/45/45 47/47/47 48/48/48
f 45/45/45 48/48/48 46/46/46
vt 0.326639 0.000000
vt 0.326639 1.000000
f 47/47/47 49/49/49 50/50/50
f 47/47/47 50/50/50 48/48/48
vt 0.340249 0.000000
vt 0.340249 1.000000
f 49/49/49 51/51/51 52/52/52
f 49/49/49 52/52/52 50/50/50
vt 0.353859 0.000000
vt 0.353859 1.000000
f 51/51/51 53/53/53 54/54/54
f 51/51/51 54/54/54 52/52/52
vt 0.367469 0.000000
vt 0.367469 1.000000
f 53/53/53 55/55/55 56/56/56
f 53/53/53 56/56/56 54/54/54
vt 0.381079 0.000000
vt 0.381079 1.000000
f 55/55/55 57/57/57 58/58/58
f 55/55/55 58/58/58 56/56/56
vt 0.394689 0.000000
vt 0.394689 1.000000
f 57/57/57 59/59/59 60/60/60
f 57/57/57 60/60/60 58/58/58
vt 0.408299 0.000000
vt 0.408299 1.000000
f 59/59/59 61/61/61 62/62/62
f 59/59/59 62/62/62 60/60/60
vt 0.421909 0.000000
vt 0.421909 1.000000
f 61/61/61 63/63/63 64/64/64
f 61/61/61 64/64/64 62/62/62
vt 0.435519 0.000000
vt 0.435519 1.000000
f 63/63/63 65/65/65 66/66/66
f 63/63/63 66/66/66 64/64/64
vt 0.439197 0.000000
vt 0.452807 0.000000
vt 0.452807 1.000000
f 67/67/67 69/68/69 70/69/70
vt 0.439197 1.000000
f 67/67/67 70/69/70 68/70/68
vt 0.466417 0.000000
vt 0.466417 1.000000
f 69/68/69 71/71/71 72/72/72
f 69/68/69 72/72/72 70/69/70
vt 0.480027 0.000000
vt 0.480027 1.000000
f 71/71/71 73/73/73 74/74/74
f 71/71/71 74/74/74 72/72/72
vt 0.493637 0.000000
vt 0.493637 1.000000
f 73/73/73 75/75/75 76/76/76
f 73/73/73 76/76/76 74/74/74
vt 0.507247 0.000000
vt 0.507247 1.000000
f 75/75/75 77/77/77 78/78/78
f 75/75/75 78/78/78 76/76/76
vt 0.520857 0.000000
vt 0.520857 1.000000
f 77/77/77 79/79/79 80/80/80
f 77/77/77 80/80/80 78/78/78
vt 0.534467 0.000000
vt 0.534467 1.000000
f 79/79/79 81/81/81 82/82/82
f 79/79/79 82/82/82 80/80/80
vt 0.548077 0.000000
vt 0.548077 1.000000
f 81/81/81 83/83/83 84/84/84
f 81/81/81 84/84/84 82/82/82
vt 0.561687 0.000000
vt 0.561687 1.000000
f 83/83/83 85/85/85 86/86/86
f 83/83/83 86/86/86 84/84/84
vt 0.575297 0.000000
vt 0.575297 1.000000
f 85/85/85 87/87/87 88/88/88
f 85/85/85 88/88/88 86/86/86
vt 0.588907 0.000000
vt 0.588907 1.000000
f 87/87/87 89/89/89 90/90/90
f 87/87/87 90/90/90 88/88/88
vt 0.602517 0.000000
vt 0.602517 1.000000
f 89/89/89 91/91/91 92/92/92
f 89/89/89 92/92/92 90/90/90
vt 0.616127 0.000000
vt 0.616127 1.000000
f 91/91/91 93/93/93 94/94/94
f 91/91/91 94/94/94 92/92/92
vt 0.629736 0.000000
vt 0.629736 1.000000
f 93/93/93 95/95/95 96/96/96
f 93/93/93 96/96/96 94/94/94
vt 0.643346 0.000000
vt 0.643346 1.000000
f 95/95/95 97/97/97 98/98/98
f 95/95/95 98/98/98 96/96/96
vt 0.656956 0.000000
vt 0.656956 1.000000
f 97/97/97 99/99/99 100/100/100
f 97/97/97 100/100/100 98/98/98
vt 0.670566 0.000000
vt 0.670566 1.000000
f 99/99/99 101/101/101 102/102/102
f 99/99/99 102/102/102 100/100/100
vt 0.684176 0.000000
vt 0.684176 1.000000
f 101/101/101 103/103/103 104/104/104
f 101/101/101 104/104/104 102/102/102
vt 0.697786 0.000000
vt 0.697786 1.000000
f 103/103/103 105/105/105 106/106/106
f 103/103/103 106/106/106 104/104/104
vt 0.711396 0.000000
vt 0.711396 1.000000
f 105/105/105 107/107/107 108/108/108
f 105/105/105 108/108/108 106/106/106
vt 0.725006 0.000000
vt 0.725006 1.000000
f 107/107/107 109/109/109 110/110/110
f 107/107/107 110/110/110 108/108/108
vt 0.738616 0.000000
vt 0.738616 1.000000
f 109/109/109 111/111/111 112/112/112
f 109/109/109 112/112/112 110/110/110
vt 0.752226 0.000000
vt 0.752226 1.000000
f 111/111/111 113/113/113 114/114/114
f 111/111/111 114/114/114 112/112/112
vt 0.765836 0.000000
vt 0.765836 1.000000
f 113/113/113 115/115/115 116/116/116
f 113/113/113 116/116/116 114/114/114
vt 0.779446 0.000000
vt 0.779446 1.000000
f 115/115/115 117/117/117 118/118/118
f 115/115/115 118/118/118 116/116/116
vt 0.793056 0.000000
vt 0.793056 1.000000
f 117/117/117 119/119/119 120/120/120
f 117/117/117 120/120/120 118/118/118
vt 0.806666 0.000000
vt 0.806666 1.000000
f 119/119/119 121/121/121 122/122/122
f 119/119/119 122/122/122 120/120/120
vt 0.820276 0.000000
vt 0.820276 1.000000
f 121/121/121 123/123/123 124/124/124
f 121/121/121 124/124/124 122/122/122
vt 0.833886 0.000000
vt 0.833886 1.000000
f 123/123/123 125/125/125 126/126/126
f 123/123/123 126/126/126 124/124/124
vt 0.847496 0.000000
vt 0.847496 1.000000
f 125/125/125 127/127/127 128/128/128
f 125/125/125 128/128/128 126/126/126
vt 0.861106 0.000000
vt 0.861106 1.000000
f 127/127/127 129/129/129 130/130/130
f 127/127/127 130/130/130 128/128/128
vt 0.874716 0.000000
vt 0.874716 1.000000
f 129/129/129 131/131/131 132/132/132
f 129/129/129 132/132/132 130/130/130
vt 0.332684 0.000000
vt 0.332684 0.504950
f 133/1/133 135/133/135 136/134/136
vt 0.000000 0.504950
f 133/1/133 136/134/136 134/135/134
vt 0.840975 1.000000
vt 0.840975 0.973531
vt 1.000000 0.973531
f 140/136/140 137/137/137 138/138/138
vt 1.000000 1.000000
f 140/136/140 138/138/138 139/139/139
f 141/1/141 143/133/143 144/134/144
f 141/1/141 144/134/144 142/135/142
f 148/136/148 145/137/145 146/138/146
f 148/136/148 146/138/146 147/139/147
f 152/136/152 149/137/149 150/138/150
f 152/136/152 150/138/150 151/139/151
f 153/1/153 155/133/155 156/134/156
f 153/1/153 156/134/156 154/135/154
f 160/136/160 157/137/157 158/138/158
f 160/136/160 158/138/158 159/139/159
# 142 faces, 139 coords texture

# End of File
